<?xml version="1.0" encoding="UTF-8" standalone="no"?>
<!-- Created with Inkscape (http://www.inkscape.org/) -->
<svg
   xmlns:svg="http://www.w3.org/2000/svg"
   xmlns="http://www.w3.org/2000/svg"
   version="1.0"
   width="48"
   height="48"
   id="svg3328">
  <defs
     id="defs3330" />
  <g
     id="layer1">
    <g
       transform="matrix(0.1848842,0,0,0.1848842,-50.88271,-43.554453)"
       id="g3150">
      <path
         d="M 355.70977,304.27097 L 358.21777,290.42397 L 350.06077,241.65297 L 477.10777,241.87897 L 477.81677,288.28597 L 478.46477,301.30897 C 497.89077,307.86597 526.09377,316.42997 526.09377,316.42997 C 526.09377,316.42997 551.55477,327.15597 488.75977,329.76397 C 425.96577,332.37097 382.09377,306.42997 382.09377,306.42997 L 355.70977,304.27097 z"
         id="path334"
         style="fill:#29204c;stroke:#fafafd" />
      <path
         d="M 383.91277,298.24597 L 392.13277,299.34297 L 389.94077,299.34297 L 448.58077,299.34297 L 472.14577,297.69797 L 478.43577,301.22997 C 497.86177,307.78697 526.06477,316.35097 526.06477,316.35097 C 526.06477,316.35097 551.52577,327.07697 488.73177,329.68497 C 425.93677,332.29197 382.06477,306.35097 382.06477,306.35097 L 383.91277,298.24597 z"
         id="path336"
         style="fill:#29204c;stroke:#fafafd" />
      <polygon
         points="240.446,1672.591 115.431,1672.479 113.882,1662.931 240.284,1663.174 240.446,1672.591 "
         transform="translate(236.83977,-1417.616)"
         id="polygon338"
         style="fill:#e9c71d" />
      <polygon
         points="241.255,1718.246 145.255,1720.546 145.921,1715.213 241.655,1713.746 241.255,1718.246 "
         transform="translate(236.83977,-1417.616)"
         id="polygon340"
         style="fill:#e9c71d" />
      <g
         transform="translate(236.83977,-1417.616)"
         id="g342">
					<circle
   cx="145.30499"
   cy="1717.858"
   r="6.2909999"
   id="circle344"
   style="fill:#eaac21" />

					<path
   d="M 148.512,1713.427 C 149.226,1715.048 147.656,1716.363 145.351,1717.378 C 143.047,1718.395 140.882,1718.728 140.167,1717.107 C 139.452,1715.486 140.74,1713.347 143.044,1712.332 C 145.349,1711.314 147.797,1711.806 148.512,1713.427 z"
   id="path346"
   style="opacity:0.58999999;fill:#ffffff" />

				</g>
      <path
         d="M 357.55277,491.58597 C 328.55277,493.58597 270.77077,442.46797 281.55277,393.58597 C 281.81677,392.39097 346.95277,351.33997 346.95277,351.33997 L 378.39377,358.60397 L 352.32577,350.43997 C 352.32577,350.43997 333.83977,344.01797 328.79977,332.41097 C 323.76177,320.80397 340.16077,301.77197 342.62877,299.50997 C 352.03277,290.88897 357.48277,293.25497 361.53877,295.12697 C 366.63277,297.47797 365.11377,310.93397 365.11377,310.93397 C 365.11377,310.93397 366.50077,303.10997 366.93177,303.75697 C 367.05177,303.93697 378.33377,305.73397 381.17877,306.51397 C 386.88577,308.07997 395.79877,312.29897 410.56677,318.65997 C 434.47177,328.95797 476.00277,330.80597 483.44777,329.63197 C 484.31377,329.49497 487.36577,335.50897 484.13577,342.59697 C 482.35077,346.51197 441.66877,343.20097 441.66877,343.20097 L 475.40877,348.00797 C 475.40877,348.00797 500.00477,385.76997 494.70077,422.69197 C 494.70077,422.69197 467.99577,413.50497 444.30677,390.56397 C 465.95477,421.45297 494.06077,427.75297 494.06077,427.75297 C 494.06077,427.75297 488.70077,455.97497 483.93477,462.66897 L 384.03277,438.30297 L 358.55377,490.58797"
         id="path348"
         style="fill:#29204c;stroke:#fafafd" />
    </g>
  </g>
</svg>
