<?xml version="1.0" encoding="UTF-8" standalone="no"?>
<!-- Created with Inkscape (http://www.inkscape.org/) -->
<svg
   xmlns:dc="http://purl.org/dc/elements/1.1/"
   xmlns:cc="http://web.resource.org/cc/"
   xmlns:rdf="http://www.w3.org/1999/02/22-rdf-syntax-ns#"
   xmlns:svg="http://www.w3.org/2000/svg"
   xmlns="http://www.w3.org/2000/svg"
   xmlns:xlink="http://www.w3.org/1999/xlink"
   xmlns:sodipodi="http://sodipodi.sourceforge.net/DTD/sodipodi-0.dtd"
   xmlns:inkscape="http://www.inkscape.org/namespaces/inkscape"
   version="1.0"
   width="600"
   height="523"
   id="svg2"
   sodipodi:version="0.32"
   inkscape:version="0.45.1"
   sodipodi:docname="Scalablegendarme5Icon.svg"
   inkscape:output_extension="org.inkscape.output.svg.inkscape"
   sodipodi:docbase="C:\Documents and Settings\Steve\Desktop">
  <sodipodi:namedview
     inkscape:window-height="682"
     inkscape:window-width="1024"
     inkscape:pageshadow="2"
     inkscape:pageopacity="0.0"
     guidetolerance="10.0"
     gridtolerance="10.0"
     objecttolerance="10.0"
     borderopacity="1.0"
     bordercolor="#666666"
     pagecolor="#ffffff"
     id="base"
     inkscape:zoom="2.0388471"
     inkscape:cx="297.98784"
     inkscape:cy="126.31629"
     inkscape:window-x="-4"
     inkscape:window-y="-4"
     inkscape:current-layer="svg2"
     showguides="true"
     inkscape:guide-bbox="true" />
  <metadata
     id="metadata16">
    <rdf:RDF>
      <cc:Work
         rdf:about="">
        <dc:format>image/svg+xml</dc:format>
        <dc:type
           rdf:resource="http://purl.org/dc/dcmitype/StillImage" />
      </cc:Work>
    </rdf:RDF>
  </metadata>
  <defs
     id="defs1131">
    <linearGradient
       id="linearGradient4234">
      <stop
         style="stop-color:#ff0000;stop-opacity:1;"
         offset="0"
         id="stop4236" />
      <stop
         id="stop4262"
         offset="0.14285715"
         style="stop-color:#ae0000;stop-opacity:1;" />
      <stop
         style="stop-color:#960000;stop-opacity:1;"
         offset="0.32142857"
         id="stop4264" />
      <stop
         id="stop4266"
         offset="0.38201532"
         style="stop-color:#d50000;stop-opacity:1;" />
      <stop
         id="stop4242"
         offset="0.5"
         style="stop-color:#d50000;stop-opacity:1;" />
      <stop
         style="stop-color:#d50000;stop-opacity:1;"
         offset="0.75"
         id="stop4244" />
      <stop
         id="stop4246"
         offset="0.875"
         style="stop-color:#9b0000;stop-opacity:1;" />
      <stop
         style="stop-color:#ff0000;stop-opacity:1;"
         offset="0.9375"
         id="stop4248" />
      <stop
         id="stop4250"
         offset="0.96875"
         style="stop-color:#db0000;stop-opacity:1;" />
      <stop
         style="stop-color:#be0000;stop-opacity:1;"
         offset="0.984375"
         id="stop4252" />
      <stop
         id="stop4254"
         offset="0.9921875"
         style="stop-color:#ff0000;stop-opacity:1;" />
      <stop
         style="stop-color:#a30000;stop-opacity:1;"
         offset="1"
         id="stop4256" />
    </linearGradient>
    <linearGradient
       id="linearGradient5208">
      <stop
         offset="0"
         id="stop5210"
         style="stop-color:#830000;stop-opacity:1;" />
      <stop
         offset="1"
         id="stop5212"
         style="stop-color:#ff0300;stop-opacity:1;" />
      <stop
         offset="1"
         id="stop5214"
         style="stop-color:#790700;stop-opacity:0;" />
    </linearGradient>
    <linearGradient
       id="linearGradient2265">
      <stop
         offset="0"
         id="stop2267"
         style="stop-color:#000000;stop-opacity:1;" />
      <stop
         offset="1"
         id="stop2275"
         style="stop-color:#dbdbdb;stop-opacity:1;" />
    </linearGradient>
    <radialGradient
       inkscape:collect="always"
       id="radialGradient2273"
       r="167"
       gradientTransform="matrix(2.4956645,-1.1924942,0.4666372,0.9757841,-609.35204,790.2382)"
       cx="370.33322"
       cy="-89.113449"
       gradientUnits="userSpaceOnUse"
       xlink:href="#linearGradient5208"
       fy="-89.113449"
       fx="370.33322" />
    <radialGradient
       inkscape:collect="always"
       id="radialGradient5206"
       r="190.05571"
       gradientTransform="matrix(4.1127378,1.6771573,-1.206319,3.2746197,-1174.4601,-1154.3354)"
       cx="383.35687"
       cy="339.14951"
       gradientUnits="userSpaceOnUse"
       xlink:href="#linearGradient2265"
       fy="339.14951"
       fx="383.35687" />
    <radialGradient
       inkscape:collect="always"
       xlink:href="#linearGradient4234"
       id="radialGradient4240"
       cx="289.55399"
       cy="396.36816"
       fx="289.55399"
       fy="396.36816"
       r="142.42131"
       gradientTransform="matrix(0.9056192,0.1546748,-3.7114001e-2,0.208409,97.576347,275.54758)"
       gradientUnits="userSpaceOnUse" />
    <linearGradient
       inkscape:collect="always"
       xlink:href="#linearGradient4234"
       id="linearGradient6212"
       x1="199.17372"
       y1="383.96179"
       x2="507.72208"
       y2="426.68488"
       gradientUnits="userSpaceOnUse" />
    <filter
       inkscape:collect="always"
       id="filter7287">
      <feGaussianBlur
         inkscape:collect="always"
         stdDeviation="0.55192346"
         id="feGaussianBlur7289" />
    </filter>
    <filter
       inkscape:collect="always"
       id="filter8572">
      <feGaussianBlur
         inkscape:collect="always"
         stdDeviation="1.4234936"
         id="feGaussianBlur8574" />
    </filter>
  </defs>
  <rect
     id="rect4232"
     x="114.85411"
     y="8.3236084"
     width="380.11142"
     height="498.02917"
     ry="29.039602"
     rx="27.745359"
     style="fill:url(#radialGradient5206);fill-opacity:1;stroke:#1a0000;stroke-width:0;stroke-linejoin:miter;stroke-miterlimit:4;stroke-dasharray:none;stroke-opacity:1" />
  <path
     id="rect3258"
     d="M 138.06214,62.424872 L 138.06214,371.21019 L 138.06214,380.95471 L 138.06214,401.82239 L 221.28107,401.82239 L 221.28107,380.95471 L 471.15661,380.95471 L 471.15661,62.424872 L 138.06214,62.424872 z "
     style="fill:#ffffff;fill-opacity:1;stroke:#000000;stroke-width:0.99928039;stroke-linejoin:miter;stroke-miterlimit:4;stroke-dasharray:none;stroke-opacity:1" />
  <path
     id="path4373"
     d="M 157,24.96875 C 145.95058,24.96875 137.0625,32.70567 137.0625,42.3125 L 137.0625,68.40625 L 137.0625,78.375 L 137.0625,90.875 C 137.0625,91.102643 137.08401,91.337158 137.09375,91.5625 C 137.08253,91.561397 137.07397,91.563895 137.0625,91.5625 L 137.0625,92.53125 L 137.0625,95.4375 L 138.0625,204.4375 L 141.0625,204.4375 C 140.8625,203.26982 142.3625,203.46876 143.0625,203.46875 L 144.0625,203.46875 C 143.8625,202.30106 145.3625,202.46876 146.0625,202.46875 L 148.0625,202.46875 C 147.8625,201.30105 149.3625,201.50001 150.0625,201.5 L 151.0625,201.5 C 150.8625,200.33231 152.3625,200.53126 153.0625,200.53125 L 155.0625,200.53125 C 154.8625,199.36356 156.36251,199.56251 157.0625,199.5625 L 159.0625,199.5625 C 158.8625,198.39481 160.3625,198.59376 161.0625,198.59375 L 162.0625,198.59375 C 161.8625,197.42606 163.3625,197.62501 164.0625,197.625 L 166.0625,197.625 C 165.8625,196.45731 167.3625,196.65626 168.0625,196.65625 L 170.0625,196.65625 C 169.8625,195.48856 171.3625,195.68751 172.0625,195.6875 L 173.0625,195.6875 C 172.8625,194.51981 174.3625,194.68751 175.0625,194.6875 L 177.0625,194.6875 C 176.8625,193.51981 178.3625,193.71876 179.0625,193.71875 L 180.0625,193.71875 C 179.8625,192.55106 181.3625,192.75001 182.0625,192.75 L 184.0625,192.75 C 183.8625,191.58231 185.3625,191.78126 186.0625,191.78125 L 187.0625,191.78125 C 186.8625,190.61356 188.3625,190.81251 189.0625,190.8125 L 191.0625,190.8125 C 190.8625,189.64482 192.3625,189.84376 193.0625,189.84375 L 195.0625,189.84375 C 194.8625,188.67606 196.3625,188.87501 197.0625,188.875 L 198.0625,188.875 C 197.8625,187.70731 199.3625,187.87501 200.0625,187.875 L 204.0625,187.875 L 205.0625,188.875 L 207.0625,188.875 L 208.0625,189.84375 L 209.0625,189.84375 L 210.0625,190.8125 L 211.0625,190.8125 L 212.0625,191.78125 L 214.0625,191.78125 L 215.0625,192.75 L 216.0625,192.75 L 217.0625,193.71875 L 219.0625,193.71875 L 220.0625,194.6875 L 221.0625,194.6875 L 222.0625,195.6875 L 226.0625,196.65625 L 227.0625,197.625 L 228.0625,197.625 L 229.0625,197.625 L 230.0625,196.65625 L 229.0625,196.65625 L 228.0625,195.6875 L 227.0625,195.6875 L 226.0625,194.6875 L 225.0625,194.6875 L 224.0625,193.71875 L 223.0625,193.71875 L 222.0625,192.75 L 221.0625,192.75 L 220.0625,191.78125 L 208.0625,185.9375 L 207.0625,184.96875 L 205.0625,184 L 204.0625,183.03125 L 202.0625,182.0625 L 201.0625,181.0625 L 200.0625,180.09375 L 197.0625,178.15625 L 196.0625,177.1875 L 195.0625,176.21875 L 194.0625,175.25 L 193.0625,174.25 L 192.0625,173.28125 L 191.0625,172.3125 L 190.0625,171.34375 L 189.0625,170.375 L 188.0625,169.40625 L 186.0625,166.46875 L 185.0625,165.5 L 184.0625,163.5625 L 183.0625,162.59375 L 183.0625,161.625 L 182.0625,160.65625 L 182.0625,158.6875 L 181.0625,157.71875 L 181.0625,155.78125 C 179.3625,154.12702 179.3625,148.68548 181.0625,147.03125 L 181.0625,145.0625 C 181.0625,144.38134 180.8625,142.93039 182.0625,143.125 L 182.0625,141.1875 L 183.0625,140.21875 L 183.0625,139.21875 L 184.0625,138.25 L 184.0625,137.28125 L 185.0625,136.3125 L 185.0625,135.34375 L 186.0625,134.375 L 187.0625,132.4375 L 188.0625,131.4375 L 189.0625,129.5 L 190.0625,128.53125 L 192.0625,125.625 L 193.0625,124.625 L 194.0625,123.65625 L 195.0625,122.6875 C 196.4625,119.67097 199.6625,118.03404 203.0625,118.8125 L 207.0625,119.78125 L 211.0625,119.78125 L 215.0625,120.75 L 219.0625,120.75 L 223.0625,121.71875 L 225.0625,121.71875 L 229.0625,122.6875 L 233.0625,122.6875 L 237.0625,123.65625 L 241.0625,123.65625 C 241.9625,123.84113 243.9625,123.07781 244.0625,124.625 L 250.0625,124.625 L 254.0625,125.625 L 258.0625,125.625 L 269.94226,126.22828 L 271.90625,117.90625 L 354.34375,117.90625 L 386.65625,130.09375 L 387.0625,130.46875 L 389.0625,132.4375 L 390.0625,133.40625 L 390.0625,134.375 L 391.0625,135.34375 L 392.0625,138.25 L 393.0625,139.21875 L 393.0625,140.21875 L 394.0625,141.1875 L 394.0625,142.15625 L 395.0625,143.125 L 396.0625,147.03125 C 397.2625,146.83662 397.06251,148.28761 397.0625,148.96875 L 397.0625,149.9375 C 398.2625,149.74287 398.06251,151.19385 398.0625,151.875 L 398.0625,152.84375 C 399.2625,152.64913 399.06251,154.13136 399.0625,154.8125 L 399.0625,156.75 C 400.2625,156.55539 400.06251,158.00636 400.0625,158.6875 L 400.0625,159.65625 C 401.2625,159.46165 401.06251,160.94386 401.0625,161.625 L 401.0625,163.5625 C 402.2625,163.36789 402.06251,164.81886 402.0625,165.5 L 402.0625,166.46875 C 403.2625,166.27414 403.06251,167.75636 403.0625,168.4375 L 404.0625,175.25 C 405.2625,175.05539 405.06251,176.50636 405.0625,177.1875 L 405.0625,179.125 L 405.0625,182.0625 C 406.6625,182.1598 405.86251,184.09299 406.0625,184.96875 L 406.0625,187.875 L 407.0625,192.75 L 407.0625,198.59375 L 406.0625,202.46875 L 406.0625,204.4375 L 405.0625,205.40625 C 403.3625,209.88238 397.86251,207.92328 394.0625,208.3125 L 390.0625,207.34375 L 388.0625,207.34375 C 387.1625,207.14914 385.16251,207.93192 385.0625,206.375 L 381.0625,206.375 C 380.3625,206.37501 378.86251,206.57395 379.0625,205.40625 L 375.0625,205.40625 C 374.1625,205.21163 372.16251,205.99443 372.0625,204.4375 L 371.0625,204.4375 C 370.3625,204.43751 368.86251,204.63645 369.0625,203.46875 L 365.0625,203.46875 C 364.3625,203.46875 362.86251,203.63645 363.0625,202.46875 L 361.0625,202.46875 C 360.3625,202.46874 358.86251,202.6677 359.0625,201.5 L 356.0625,201.5 L 355.0625,202.46875 L 356.0625,202.46875 C 356.7625,202.46874 358.26251,202.30107 358.0625,203.46875 L 360.0625,203.46875 L 361.0625,204.4375 L 366.0625,205.40625 C 366.7625,205.40624 368.26251,205.20732 368.0625,206.375 L 369.0625,206.375 L 370.0625,207.34375 L 372.0625,207.34375 C 372.7625,207.34376 374.26251,207.14482 374.0625,208.3125 L 375.0625,208.3125 C 375.7625,208.31249 377.26251,208.11357 377.0625,209.28125 L 379.0625,209.28125 L 380.0625,210.28125 L 388.0625,212.21875 L 389.0625,213.1875 L 390.0625,214.15625 L 391.0625,215.125 L 391.0625,217.09375 L 392.0625,218.0625 L 392.0625,219.03125 L 393.0625,220 L 393.0625,221.9375 L 394.0625,222.90625 L 394.0625,224.875 L 395.0625,225.84375 L 395.0625,227.78125 C 396.2625,227.58664 396.06251,229.03761 396.0625,229.71875 L 396.0625,230.71875 C 397.2625,230.52414 397.06251,231.97511 397.0625,232.65625 L 397.0625,234.59375 C 398.2625,234.39913 398.06251,235.85011 398.0625,236.53125 L 398.0625,237.5 C 399.2625,237.30538 399.06251,238.7876 399.0625,239.46875 L 399.0625,241.40625 C 400.2625,241.21164 400.06251,242.66261 400.0625,243.34375 L 400.0625,245.3125 C 401.2625,245.11789 401.06251,246.56886 401.0625,247.25 L 401.0625,250.15625 C 402.2625,249.96164 402.06251,251.44386 402.0625,252.125 L 402.0625,255.03125 C 403.2625,254.83662 403.06251,256.2876 403.0625,256.96875 L 403.0625,258.9375 L 403.0625,260.875 L 404.0625,264.75 L 404.0625,268.65625 L 405.0625,273.53125 L 405.0625,297.84375 L 404.0625,302.71875 L 404.0625,304.65625 C 403.8625,305.53202 404.66251,307.4652 403.0625,307.5625 L 403.0625,310.5 C 403.0625,311.18116 403.26251,312.63212 402.0625,312.4375 L 402.0625,315.375 C 402.0625,316.05614 402.26251,317.50712 401.0625,317.3125 L 401.0625,319.25 C 401.0625,319.93114 401.26251,321.38212 400.0625,321.1875 L 400.0625,322.1875 C 400.2625,323.45249 397.86251,323.45251 398.0625,322.1875 L 396.0625,321.1875 L 395.0625,320.21875 L 393.0625,319.25 L 392.0625,318.28125 L 390.0625,317.3125 L 389.0625,316.34375 L 387.0625,315.375 L 386.0625,314.375 L 384.0625,313.40625 L 383.0625,312.4375 L 382.0625,311.46875 L 380.0625,310.5 L 379.0625,309.53125 L 378.0625,308.5625 L 375.0625,306.59375 L 374.0625,305.625 L 370.0625,302.71875 L 369.0625,301.75 L 368.0625,300.75 L 367.0625,299.78125 L 361.0625,294.9375 L 360.0625,293.96875 L 359.0625,292.96875 L 358.0625,292 L 357.0625,291.03125 L 356.0625,290.0625 L 355.0625,289.09375 L 354.0625,288.125 L 353.0625,287.15625 L 352.0625,286.15625 L 351.0625,285.1875 L 350.0625,284.21875 L 349.0625,283.25 L 345.0625,278.375 L 344.0625,277.40625 L 343.0625,276.4375 L 342.0625,275.46875 L 340.0625,272.53125 L 339.0625,271.5625 L 336.0625,268.65625 L 336.0625,269.625 L 339.0625,275.46875 L 340.0625,276.4375 L 340.0625,277.40625 L 341.0625,278.375 L 342.0625,280.34375 L 343.0625,281.3125 L 348.0625,289.09375 L 349.0625,290.0625 L 351.0625,292.96875 L 352.0625,293.96875 L 354.0625,296.875 L 355.0625,297.84375 L 356.0625,298.8125 L 357.0625,299.78125 L 371.0625,313.40625 L 372.0625,314.375 L 373.0625,315.375 L 376.0625,317.3125 L 377.0625,318.28125 L 378.0625,319.25 L 380.0625,320.21875 L 381.0625,321.1875 L 384.0625,323.15625 L 385.0625,324.125 L 389.0625,326.0625 L 390.0625,327.03125 L 391.0625,327.03125 L 392.0625,328 L 397.0625,331.90625 L 396.0625,332.875 L 395.0625,336.78125 L 394.0625,337.75 L 394.0625,339.6875 L 393.0625,340.65625 L 393.0625,341.625 L 392.0625,342.59375 L 391.0625,346.5 L 390.0625,347.46875 L 390.0625,348.4375 L 389.0625,349.40625 L 389.0625,351.375 L 388.0625,352.34375 L 388.0625,353.3125 L 387.0625,354.28125 L 387.0625,355.25 L 386.0625,356.21875 L 386.0625,357.1875 L 385.0625,358.1875 L 380.0625,368.875 L 379.0625,369.84375 L 379.0625,370.8125 L 378.0625,371.8125 L 377.0625,373.75 L 376.0625,374.71875 C 375.7625,376.56758 373.66251,376.94818 372.0625,376.65625 L 371.0625,375.6875 L 370.0625,375.6875 L 369.0625,374.71875 L 368.0625,374.71875 L 367.0625,373.75 L 365.0625,373.75 L 364.0625,372.78125 L 363.0625,372.78125 L 362.0625,371.8125 L 361.0625,371.8125 L 360.0625,370.8125 L 358.0625,370.8125 L 357.0625,369.84375 L 356.0625,369.84375 L 355.0625,368.875 L 354.0625,368.875 L 353.0625,367.90625 L 351.0625,367.90625 L 350.0625,366.9375 L 349.0625,366.9375 L 348.0625,365.96875 L 347.0625,365.96875 L 346.0625,365 L 344.0625,365 L 343.0625,364 L 342.0625,364 L 341.0625,363.03125 L 340.0625,363.03125 L 339.0625,362.0625 L 337.0625,362.0625 L 336.0625,361.09375 L 335.0625,361.09375 L 334.0625,360.125 L 333.0625,360.125 L 332.0625,359.15625 L 330.0625,359.15625 L 329.0625,358.1875 L 328.0625,358.1875 L 327.0625,357.1875 L 326.0625,357.1875 L 325.0625,356.21875 L 321.0625,355.25 L 320.0625,354.28125 L 319.0625,354.28125 L 318.0625,353.3125 L 314.0625,352.34375 L 313.0625,351.375 L 312.0625,351.375 L 311.0625,350.40625 L 307.0625,349.40625 L 306.0625,348.4375 L 305.0625,348.4375 L 304.0625,347.46875 L 300.0625,346.5 L 299.0625,345.53125 L 298.0625,345.53125 L 297.0625,344.5625 L 293.0625,343.59375 L 292.0625,342.59375 L 291.0625,342.59375 L 290.0625,341.625 L 286.0625,340.65625 L 285.0625,339.6875 L 284.0625,339.6875 L 283.0625,338.71875 L 279.0625,337.75 L 278.0625,336.78125 L 277.0625,336.78125 L 276.0625,335.78125 L 272.0625,334.8125 L 271.0625,333.84375 L 270.0625,333.84375 L 269.0625,332.875 L 268.0625,332.875 L 267.0625,331.90625 L 265.0625,331.90625 L 264.0625,330.9375 L 263.0625,330.9375 L 262.0625,329.96875 L 261.0625,329.96875 L 260.0625,328.96875 L 258.0625,328.96875 L 257.0625,328 L 256.0625,328 L 255.0625,327.03125 L 254.0625,327.03125 L 253.0625,326.0625 L 251.0625,326.0625 L 250.0625,325.09375 L 249.0625,325.09375 L 248.0625,324.125 L 247.0625,324.125 L 246.0625,323.15625 L 244.0625,323.15625 L 243.0625,322.1875 L 242.0625,322.1875 L 241.0625,321.1875 L 240.0625,321.1875 L 239.0625,320.21875 L 237.0625,320.21875 L 236.0625,319.25 C 234.7625,318.95807 233.3625,319.92251 233.0625,321.1875 L 232.0625,322.1875 L 231.0625,323.15625 L 229.0625,326.0625 L 228.0625,327.03125 L 227.0625,328 L 224.0625,331.90625 L 223.0625,332.875 L 222.0625,333.84375 L 220.0625,336.78125 L 219.0625,337.75 L 218.0625,338.71875 L 215.0625,342.59375 L 214.0625,343.59375 L 213.0625,344.5625 L 211.0625,347.46875 L 210.0625,348.4375 L 209.0625,349.40625 L 206.0625,353.3125 L 205.0625,354.28125 L 204.0625,355.25 L 202.0625,358.1875 L 201.0625,359.15625 L 200.0625,360.125 L 197.0625,364 L 196.0625,365 L 195.0625,365.96875 L 193.0625,368.875 L 192.0625,369.84375 L 191.0625,370.8125 L 188.0625,374.71875 L 187.0625,375.6875 L 186.0625,376.65625 L 184.0625,379.59375 L 183.0625,380.5625 L 182.0625,381.53125 L 179.0625,385.4375 L 178.0625,386.40625 L 177.0625,387.375 L 175.0625,390.28125 L 174.0625,391.25 L 173.0625,392.21875 L 171.0625,395.15625 L 170.0625,396.125 L 169.0625,397.09375 L 166.0625,401 L 165.0625,401.96875 L 453.0625,402.9375 L 456.0625,402.9375 C 455.8625,401.76981 457.36251,401.96876 458.0625,401.96875 L 459.0625,401.96875 L 460.0625,401 L 461.0625,401 L 462.0625,400.03125 L 464.0625,399.03125 L 465.0625,398.0625 L 466.0625,397.09375 L 467.0625,396.125 L 470.0625,390.28125 L 471.0625,389.3125 L 471.0625,388.34375 L 471.0625,386.40625 L 471.0625,94.46875 L 471.0625,92.53125 L 471.0625,90.875 L 471.0625,90.59375 L 471.0625,78.375 L 471.0625,68.40625 L 471.0625,42.3125 C 471.0625,32.70567 462.17441,24.96875 451.125,24.96875 L 157,24.96875 z "
     style="fill:url(#radialGradient2273);fill-opacity:1;stroke:#000000;stroke-opacity:1"
     sodipodi:nodetypes="cccccscccccccccccccccccccccccccccccccccccccccccccccccccccccccccccccccccccccccccccccccccccccccccccccccccccccccccccccccccccccccccccccccccccccccccccccccccccccccccccccccccccccccccccccccccccccccccccccccccccccccccccccccccccccccccccccccccccccccccccccccccccccccccccccccccccccccccccccccccccccccccccccccccccccccccccccccccccccccccccccccccccccccccccccccccccccccccccccccccccccccccccccccccccccccccccccccccccccccccccccccccccccccccccccccccccccccccccccccccccccccccccccccccccccccccccccccccccccccccccccccccccccccccccccccccccccccccccccccc" />
  <rect
     id="rect4377"
     x="238.61008"
     y="112.3687"
     width="0"
     height="15.259947"
     ry="0"
     style="fill:#000000;fill-opacity:1;stroke:#ffffff;stroke-width:0;stroke-miterlimit:4;stroke-dasharray:none;stroke-opacity:1" />
  <rect
     id="rect4409"
     height="62.848408"
     x="206.32062"
     y="383.08762"
     width="296.40488"
     ry="14.672708"
     transform="matrix(0.9936015,0.1129423,-0.1162624,0.9932185,0,0)"
     style="fill:#ffffff;fill-opacity:0;stroke:url(#linearGradient6212);stroke-width:3.0000085;stroke-miterlimit:4;stroke-dasharray:none;stroke-opacity:1;fill-rule:nonzero;stroke-linecap:butt;filter:url(#filter7287)" />
  <text
     id="text4405"
     x="225.49568"
     y="422.58347"
     transform="matrix(0.9899478,0.1319939,-0.1306634,0.9927324,0,0)"
     xml:space="preserve"
     style="font-size:63.42404938px;font-style:normal;font-weight:normal;fill:url(#radialGradient4240);fill-opacity:1;stroke:none;stroke-width:1px;stroke-linecap:butt;stroke-linejoin:miter;stroke-opacity:1;font-family:Bitstream Vera Sans;filter:url(#filter8572)"><tspan
       id="tspan4407"
       style="font-size:64.44780731px;font-weight:bold;fill:url(#radialGradient4240);fill-opacity:1;font-family:Times New Roman"
       x="225.49568"
       y="422.58347">gendarme</tspan></text>
  <rect
     id="rect3164"
     x="233.71861"
     y="-76.583534"
     width="0"
     height="22.239555"
     ry="0"
     transform="matrix(0.9999953,-3.0817251e-3,2.1469716e-3,0.9999977,0,0)"
     style="fill:#000000;fill-opacity:1;stroke:#ffffff;stroke-width:0;stroke-miterlimit:4;stroke-dasharray:none;stroke-opacity:1" />
  <path
     id="path2180"
     d="M 226.24362,123.53253 L 239.58371,48.949023 L 411.7154,50.748017 L 405.15038,136.95788 L 440.59823,141.50755 L 440.62824,155.48414 L 226.24362,123.53253 z "
     style="fill:#ffffff;fill-opacity:1;fill-rule:evenodd;stroke:#000000;stroke-width:1;stroke-linecap:butt;stroke-linejoin:miter;stroke-miterlimit:4;stroke-dasharray:none;stroke-opacity:1" />
  <path
     id="rect2182"
     d="M 233.90625,76.4375 L 231.1875,92.78125 L 407.75,108.96875 L 408.84375,92.46875 L 233.90625,76.4375 z "
     style="fill:#000000;fill-opacity:1;stroke:#ffffff;stroke-width:0;stroke-miterlimit:4;stroke-dasharray:none;stroke-opacity:1" />
  <path
     id="path2184"
     d="M 410.1875,72.1875 L 402.96875,85.75 L 388.75,86.125 L 397.625,99.90625 L 393.5,116.8125 L 406.8125,110.59375 L 407.59375,111.28125 L 410.1875,72.1875 z M 418.3125,120.53125 L 418.5,120.6875 L 418.5,120.53125 L 418.3125,120.53125 z "
     style="fill:#ffff00;fill-opacity:1;stroke:#ffffff;stroke-width:0;stroke-miterlimit:4;stroke-dasharray:none;stroke-opacity:1" />
</svg>
